<svg xmlns="http://www.w3.org/2000/svg" xmlns:xlink="http://www.w3.org/1999/xlink" width="500" zoomAndPan="magnify" viewBox="0 0 375 374.999991" height="500" preserveAspectRatio="xMidYMid meet" version="1.0"><defs><g/><clipPath id="311ed17c5d"><path d="M 244.054688 140 L 301.804688 140 L 301.804688 205.144531 L 244.054688 205.144531 Z M 244.054688 140 " clip-rule="nonzero"/></clipPath></defs><g clip-path="url(#311ed17c5d)"><path fill="#ffffff" d="M 273.023438 205.183594 C 272.125 205.183594 271.289062 204.941406 270.511719 204.523438 L 262.558594 199.800781 C 261.363281 199.144531 261.960938 198.90625 262.320312 198.785156 C 263.933594 198.246094 264.234375 198.125 265.910156 197.167969 C 266.085938 197.050781 266.328125 197.109375 266.507812 197.230469 L 272.605469 200.878906 C 272.84375 200.996094 273.144531 200.996094 273.324219 200.878906 L 297.179688 187.066406 C 297.417969 186.945312 297.539062 186.707031 297.539062 186.40625 L 297.539062 158.84375 C 297.539062 158.542969 297.417969 158.304688 297.179688 158.183594 L 273.324219 144.433594 C 273.085938 144.3125 272.785156 144.3125 272.605469 144.433594 L 248.75 158.183594 C 248.507812 158.304688 248.390625 158.601562 248.390625 158.84375 L 248.390625 186.40625 C 248.390625 186.648438 248.507812 186.945312 248.746094 187.066406 L 255.265625 190.832031 C 258.792969 192.625 261.003906 190.535156 261.003906 188.441406 L 261.003906 161.234375 C 261.003906 160.875 261.304688 160.515625 261.722656 160.515625 L 264.773438 160.515625 C 265.132812 160.515625 265.488281 160.816406 265.488281 161.234375 L 265.488281 188.441406 C 265.488281 193.164062 262.917969 195.914062 258.433594 195.914062 C 257.058594 195.914062 255.984375 195.914062 252.933594 194.421875 L 246.65625 190.832031 C 245.101562 189.9375 244.144531 188.261719 244.144531 186.46875 L 244.144531 158.902344 C 244.144531 157.109375 245.101562 155.433594 246.65625 154.539062 L 270.511719 140.726562 C 272.007812 139.886719 274.042969 139.886719 275.535156 140.726562 L 299.394531 154.539062 C 300.949219 155.433594 301.902344 157.109375 301.902344 158.902344 L 301.902344 186.46875 C 301.902344 188.261719 300.949219 189.9375 299.394531 190.832031 L 275.535156 204.644531 C 274.757812 205.003906 273.859375 205.179688 273.023438 205.179688 Z M 280.378906 186.230469 C 269.914062 186.230469 267.761719 181.445312 267.761719 177.378906 C 267.761719 177.019531 268.058594 176.660156 268.480469 176.660156 L 271.589844 176.660156 C 271.949219 176.660156 272.246094 176.898438 272.246094 177.257812 C 272.722656 180.429688 274.101562 181.984375 280.4375 181.984375 C 285.460938 181.984375 287.613281 180.84375 287.613281 178.15625 C 287.613281 176.601562 287.015625 175.464844 279.183594 174.6875 C 272.664062 174.03125 268.597656 172.59375 268.597656 167.394531 C 268.597656 162.550781 272.664062 159.679688 279.480469 159.679688 C 287.132812 159.679688 290.902344 162.308594 291.382812 168.050781 C 291.382812 168.230469 291.320312 168.410156 291.199219 168.589844 C 291.082031 168.710938 290.902344 168.828125 290.722656 168.828125 L 287.613281 168.828125 C 287.316406 168.828125 287.015625 168.589844 286.957031 168.289062 C 286.238281 165.003906 284.382812 163.925781 279.480469 163.925781 C 273.980469 163.925781 273.324219 165.839844 273.324219 167.273438 C 273.324219 169.007812 274.101562 169.546875 281.515625 170.503906 C 288.871094 171.460938 292.335938 172.832031 292.335938 177.976562 C 292.277344 183.238281 287.972656 186.230469 280.378906 186.230469 Z M 280.378906 186.230469 " fill-opacity="1" fill-rule="nonzero"/></g><g fill="#ffffff" fill-opacity="1"><g transform="translate(86.04087, 186.795237)"><g><path d="M 11.921875 0 L 1.34375 0 L 1.34375 -30.1875 L 11.921875 -30.1875 Z M 12.796875 -30.1875 L 23.25 -30.1875 L 23.25 -18.546875 Z M 19.265625 -9.484375 L 12.671875 -15.71875 L 19.265625 -21.9375 Z M 12.796875 0 L 23.40625 -13.59375 L 23.40625 0 Z M 12.796875 0 "/></g></g></g><g fill="#ffffff" fill-opacity="1"><g transform="translate(110.608266, 186.795237)"><g><path d="M 15.390625 -13.84375 L 11.125 -21.484375 L 19.734375 -21.484375 Z M 20.53125 0 L 11.046875 0 L -0.796875 -21.484375 L 8.6875 -21.484375 Z M 3.984375 -8.328125 L 8.53125 0 L -1.046875 0 Z M 3.984375 -8.328125 "/></g></g></g><g fill="#ffffff" fill-opacity="1"><g transform="translate(130.54377, 186.795237)"><g><path d="M 11.796875 0 L 11.796875 -21.484375 C 14.785156 -21.191406 17.097656 -20.101562 18.734375 -18.21875 C 20.367188 -16.34375 21.1875 -13.832031 21.1875 -10.6875 C 21.1875 -7.59375 20.359375 -5.101562 18.703125 -3.21875 C 17.046875 -1.34375 14.742188 -0.269531 11.796875 0 Z M 9.484375 8.53125 L 1.15625 8.53125 L 1.15625 -21.484375 L 9.484375 -21.484375 Z M 9.484375 8.53125 "/></g></g></g><g fill="#ffffff" fill-opacity="1"><g transform="translate(152.315706, 186.795237)"><g><path d="M 9.484375 -21.484375 L 9.484375 0 L 1.15625 0 L 1.15625 -21.484375 Z M 18.78125 -17.71875 C 18.78125 -16.570312 18.367188 -15.585938 17.546875 -14.765625 C 16.722656 -13.953125 15.738281 -13.546875 14.59375 -13.546875 C 13.457031 -13.546875 12.484375 -13.957031 11.671875 -14.78125 C 10.859375 -15.601562 10.453125 -16.582031 10.453125 -17.71875 C 10.453125 -18.832031 10.863281 -19.800781 11.6875 -20.625 C 12.507812 -21.445312 13.476562 -21.859375 14.59375 -21.859375 C 15.71875 -21.859375 16.695312 -21.445312 17.53125 -20.625 C 18.363281 -19.8125 18.78125 -18.84375 18.78125 -17.71875 Z M 18.78125 -17.71875 "/></g></g></g><g fill="#ffffff" fill-opacity="1"><g transform="translate(171.455422, 186.795237)"><g><path d="M 19.546875 -11.25 L 11.921875 -11.25 L 11.921875 -21.859375 C 14.566406 -21.691406 16.488281 -20.78125 17.6875 -19.125 C 18.882812 -17.476562 19.503906 -14.851562 19.546875 -11.25 Z M 9.78125 -2.21875 L 9.875 -2.203125 C 10.53125 -2.097656 11.039062 -2.046875 11.40625 -2.046875 C 13 -2.046875 14.445312 -2.492188 15.75 -3.390625 C 17.0625 -4.296875 18.257812 -5.675781 19.34375 -7.53125 L 19.34375 -3.421875 C 18.132812 -2.109375 16.867188 -1.144531 15.546875 -0.53125 C 14.234375 0.0703125 12.742188 0.375 11.078125 0.375 C 7.734375 0.375 5.148438 -0.585938 3.328125 -2.515625 C 1.503906 -4.441406 0.59375 -7.164062 0.59375 -10.6875 C 0.59375 -14 1.398438 -16.632812 3.015625 -18.59375 C 4.640625 -20.5625 6.894531 -21.648438 9.78125 -21.859375 Z M 9.78125 -2.21875 "/></g></g></g><g fill="#ffffff" fill-opacity="1"><g transform="translate(191.758213, 186.795237)"><g><path d="M 6.984375 -21.484375 C 6.773438 -21.335938 6.609375 -21.164062 6.484375 -20.96875 C 6.367188 -20.769531 6.3125 -20.578125 6.3125 -20.390625 C 6.3125 -19.910156 6.585938 -19.382812 7.140625 -18.8125 C 7.253906 -18.707031 7.335938 -18.617188 7.390625 -18.546875 L 15.921875 -9.609375 C 16.671875 -8.847656 17.226562 -8.066406 17.59375 -7.265625 C 17.957031 -6.472656 18.140625 -5.65625 18.140625 -4.8125 C 18.140625 -3.257812 17.597656 -2.0625 16.515625 -1.21875 C 15.429688 -0.375 13.898438 0.046875 11.921875 0.046875 C 11.796875 0.046875 11.628906 0.0351562 11.421875 0.015625 C 11.222656 0.00390625 11.066406 0 10.953125 0 C 11.160156 -0.132812 11.320312 -0.300781 11.4375 -0.5 C 11.550781 -0.695312 11.609375 -0.90625 11.609375 -1.125 C 11.609375 -1.601562 11.332031 -2.132812 10.78125 -2.71875 C 10.6875 -2.8125 10.617188 -2.878906 10.578125 -2.921875 L 2.34375 -11.875 C 1.84375 -12.414062 1.492188 -12.960938 1.296875 -13.515625 C 1.097656 -14.066406 1 -14.8125 1 -15.75 C 1 -17.382812 1.523438 -18.75 2.578125 -19.84375 C 3.628906 -20.9375 4.941406 -21.484375 6.515625 -21.484375 Z M 16.421875 -12.328125 L 7.8125 -21.484375 L 16.421875 -21.484375 Z M 10.125 0 L 1.34375 0 L 1.34375 -9.453125 Z M 10.125 0 "/></g></g></g><g fill="#ffffff" fill-opacity="1"><g transform="translate(210.897929, 186.795237)"><g><path d="M 6.984375 -21.484375 C 6.773438 -21.335938 6.609375 -21.164062 6.484375 -20.96875 C 6.367188 -20.769531 6.3125 -20.578125 6.3125 -20.390625 C 6.3125 -19.910156 6.585938 -19.382812 7.140625 -18.8125 C 7.253906 -18.707031 7.335938 -18.617188 7.390625 -18.546875 L 15.921875 -9.609375 C 16.671875 -8.847656 17.226562 -8.066406 17.59375 -7.265625 C 17.957031 -6.472656 18.140625 -5.65625 18.140625 -4.8125 C 18.140625 -3.257812 17.597656 -2.0625 16.515625 -1.21875 C 15.429688 -0.375 13.898438 0.046875 11.921875 0.046875 C 11.796875 0.046875 11.628906 0.0351562 11.421875 0.015625 C 11.222656 0.00390625 11.066406 0 10.953125 0 C 11.160156 -0.132812 11.320312 -0.300781 11.4375 -0.5 C 11.550781 -0.695312 11.609375 -0.90625 11.609375 -1.125 C 11.609375 -1.601562 11.332031 -2.132812 10.78125 -2.71875 C 10.6875 -2.8125 10.617188 -2.878906 10.578125 -2.921875 L 2.34375 -11.875 C 1.84375 -12.414062 1.492188 -12.960938 1.296875 -13.515625 C 1.097656 -14.066406 1 -14.8125 1 -15.75 C 1 -17.382812 1.523438 -18.75 2.578125 -19.84375 C 3.628906 -20.9375 4.941406 -21.484375 6.515625 -21.484375 Z M 16.421875 -12.328125 L 7.8125 -21.484375 L 16.421875 -21.484375 Z M 10.125 0 L 1.34375 0 L 1.34375 -9.453125 Z M 10.125 0 "/></g></g></g></svg>